<svg xmlns="http://www.w3.org/2000/svg" width="800" height="600" viewBox="0 0 800 600">
  <defs>
    <linearGradient id="darkGrad" x1="0%" y1="0%" x2="100%" y2="100%">
      <stop offset="0%" style="stop-color:#0a0a0a;stop-opacity:1" />
      <stop offset="100%" style="stop-color:#2a2a2a;stop-opacity:1" />
    </linearGradient>
  </defs>
  <rect width="800" height="600" fill="url(#darkGrad)"/>
  <circle cx="400" cy="250" r="80" fill="#dc3545" opacity="0.8"/>
  <text x="400" y="250" font-family="Arial, sans-serif" font-size="24" font-weight="bold" text-anchor="middle" fill="white">KM</text>
  <text x="400" y="350" font-family="Arial, sans-serif" font-size="32" font-weight="bold" text-anchor="middle" fill="#dc3545">KURT METZGER</text>
  <text x="400" y="390" font-family="Arial, sans-serif" font-size="18" text-anchor="middle" fill="white">Dark Comedy's Brightest Flame</text>
  <text x="400" y="480" font-family="Arial, sans-serif" font-size="14" text-anchor="middle" fill="#888">[Placeholder Image - Replace with actual photo]</text>
  <text x="400" y="500" font-family="Arial, sans-serif" font-size="12" text-anchor="middle" fill="#666">800x600 Hero Image</text>
  
  <!-- Occult-inspired decorative elements -->
  <polygon points="400,50 410,80 440,80 418,98 428,128 400,110 372,128 382,98 360,80 390,80" fill="#6f42c1" opacity="0.6"/>
  <polygon points="80,300 90,330 120,330 98,348 108,378 80,360 52,378 62,348 40,330 70,330" fill="#6f42c1" opacity="0.4"/>
  <polygon points="720,300 730,330 760,330 738,348 748,378 720,360 692,378 702,348 680,330 710,330" fill="#6f42c1" opacity="0.4"/>
</svg>